<svg width="48px" height="48px" class="oofla" xmlns="http://www.w3.org/2000/svg" viewBox="0 0 1024 1024"><circle fill="#fff" cx="512" cy="512" r="512"/><path d="M683.504 717.497c11.91 13.601 25.727 24.666 38.778 36.54 8.351 7.596 16.888 14.988 25.826 22.9 4.875-7.64 8.408-15.312 11.463-23.122 4.365-11.157 7.901-22.637 12.176-33.833 4.367-11.438 12.198-20.987 17.986-31.656 5.63-10.38 12.345-19.72 22.493-26.171.98-.623 1.839-1.433 2.815-2.06.377-.242.926-.216 1.352-.303 1.407 1.11.918 2.529.693 3.743-2.96 16.015-5.036 32.274-9.275 47.947-3.68 13.607-10.623 26.182-17.427 38.613-4.399 8.037-8.837 16.053-13.243 24.086-.625 1.14-1.502 2.21-1.224 4.025 2.49-.048 4.181-1.79 6.015-2.965 18.804-12.045 37.983-23.454 57.343-34.585 12.034-6.918 25.615-9.225 38.416-13.835 2.714-.978 5.404-2.653 8.487-2.049.724 1.356-.282 1.982-.887 2.676-9.3 10.674-18.738 21.23-27.899 32.02-6.868 8.092-16.425 12.391-24.838 18.288-26.676 18.696-57.346 29.561-86.402 43.578-4.542 2.19-9.911 2.77-14.962 3.767-4.088.807-5.545-.825-3.803-4.682 3.698-8.185 7.537-16.345 11.974-24.142 2.608-4.583 1.708-7.092-2.056-10.389-17.793-15.586-35.315-31.482-52.946-47.254-10.033-8.975-17.657-19.919-25.258-30.877-4.082-5.885-8.212-11.75-12-17.823-1.894-3.036-3.581-3.22-6.884-2.023-13.455 4.877-26.483 10.855-40.147 15.196-18.737 5.953-38.098 7.837-57.536 8.998-13.285.794-26.616.903-39.93 1.085-34.228.466-67.3-6.541-99.087-18.306-24.459-9.053-48.854-18.674-71.964-31.041-10.163-5.44-19.51-12.131-28.735-19.003-1.971-1.47-3.689-3.382-6.804-4.22-3.152 4.014-6.428 8.164-9.68 12.333-15.506 19.885-32.252 38.586-51.904 54.526-13.379 10.851-28.92 16.118-45.845 17.85-1.808.186-3.608.443-7.135.88 23.644 14.243 46.106 27.8 63.69 48.344-3.64 3.409-7.348 5.392-12.199 4.987-10.42-.871-20.15-4.03-29.654-8.263-22.15-9.864-42.483-22.94-63.191-35.362-.526-.316-1.051-.634-2.668-1.61 4.138 9.762 7.43 18.64 11.577 27.098 12.286 25.049 17.7 51.79 20.376 79.272.29 2.975.684 5.943 1.143 8.897.245 1.576.316 2.965-1.212 3.977-1.642 1.086-2.847.1-4.042-.806-4.43-3.356-8.055-7.349-10.503-12.436-16.17-33.618-26.211-69.39-37.061-104.886-2.966-9.702-5.405-19.566-9.1-29.05-1.796-4.61-.097-7.024 4.753-7.468 3.026-.278 5.838.18 8.729 1.4 7.668 3.235 15.53 6.007 23.237 9.153 10.566 4.314 21.638 3.652 32.555 2.998 12.272-.735 24.43-2.32 35.75-8.09 8.014-4.084 14.819-9.595 21.296-15.568 18.777-17.314 35.283-36.64 50.537-57.668-2.967-2.52-5.86-4.732-8.475-7.234-18.563-17.764-39.4-32.827-58.806-49.556-19.722-17.003-36.94-36.451-49.931-59.376-10.313-18.2-8.804-36.361-.963-54.655 6.49-15.14 16.568-28.171 26.201-41.274 28.01-38.095 56.663-75.718 85.13-113.476 16.548-21.948 31.567-45.024 49-66.315 15.2-18.564 29.902-37.694 48.444-53.079 21.547-17.88 46.456-24.328 74.277-19.09 22.919 4.315 43.307 14.434 63.776 25.165 37.634 19.73 65.012 50.521 91.392 82.338 11.665 14.068 20.14 30.596 29.164 46.542 2.49 4.4 5.605 6.043 10.19 6.47 15.83 1.475 31.526.371 47.119-2.407 38.385-6.84 75.14-18.798 110.573-35.036 9.37-4.294 19.198-7.583 28.776-11.432 7.76-3.118 15.03-7.016 20.995-13.098 1.605-1.636 2.587-3.414 3.216-5.492 1.306-4.314 2.897-8.502 5-12.502 5.585-10.622 15.487-12.804 25.2-5.86 6.634 4.743 13.872 8.696 19.92 14.2 17.23 15.686 29.96 34.04 35.025 57.358 4.255 19.595 7.159 39.251 6.48 59.315-.32 9.487-1.392 19.055-4.488 27.984-4.641 13.385-15.108 23.203-31.224 14.531-1.024-.55-2.083-1.271-3.187-1.405-16.786-2.035-32.104-10.145-49.34-10.955-16.53-.776-32.944-.386-49.369.8-18.415 1.328-36.826 2.843-55.093 5.689-15.442 2.405-30.923 4.58-46.327 7.205-4.405.75-8.371 3.307-12.035 5.859-3.182 2.216-2.67 4.872.899 6.785 2.495 1.338 4.987 2.72 7.598 3.795 10.017 4.126 17.152 11.588 24.312 19.443 17.8 19.53 26.51 43.099 29.9 68.499 2.295 17.192 3.584 34.84-1.557 52.027-8.108 27.105-22.5 50.077-45.397 67.065-13.375 9.924-25.462 21.472-39.419 30.645-4.83 3.175-10.675 4.712-15.15 9.28 8.14 12.937 16.685 25.398 26.215 37.616M176.859 469.396c-1.474 7.093-4.665 13.774-3.947 21.39 1.067 11.313 6.762 20.645 12.955 29.375 13.73 19.356 29.704 36.78 48.375 51.615 14.59 11.592 29.392 22.863 43.042 35.678 17.368 16.304 35.531 32.115 56.574 43.411 31.267 16.785 63.932 30.738 98.227 40.237 24.271 6.724 48.98 11.02 74.409 9.936 13.299-.567 26.63-.325 39.925-1.33 10.774-.815 21.546-1.558 32.164-3.718 15.246-3.101 29.442-9.258 44.026-14.407 17.685-6.244 33.675-15.291 48.893-25.668 13.034-8.888 25.269-19.058 37.236-29.381 32.071-27.664 44.864-62.65 38.117-104.545-3.572-22.177-10.59-42.89-26.04-60.018-6.505-7.213-12.793-14.456-22.152-18.184-3.698-1.473-7.217-3.443-10.71-5.38-11.053-6.13-9.883-3.67-6.053-15.672 2.046-6.41 5.829-10.253 11.612-13.422 6.932-3.799 14.226-5.123 21.824-6.19 19.914-2.798 39.681-6.555 59.715-8.612 14.737-1.513 29.521-2.338 44.261-3.705 15.486-1.437 30.881-.785 46.314.733 5.719.563 11.347 2.47 17.065 1.731 1.036-2.028.916-3.697.043-5.496-3.056-6.29-6.003-12.632-8.987-18.956-9.625-20.398-17.601-41.273-20.322-63.922-.694-5.78.002-11.661-1.606-17.348-.816-2.887-2.327-4.013-5.11-2.522-11.355 6.084-23.937 9.225-35.525 14.672-25.697 12.08-52.32 21.482-79.649 29.061-29.842 8.276-59.964 13.554-91.129 10.513-6.53-.638-10.95-2.4-14.532-8.755-15.876-28.17-33.214-55.138-56.187-78.57-24.466-24.955-51.266-45.811-83.056-60.363-15.736-7.203-31.98-12.908-49.183-14.03-23.164-1.51-43.033 7.078-59.521 23.35-17.942 17.707-34.448 36.765-49.146 57.158-26.4 36.626-54.61 71.902-80.522 108.876-16.536 23.595-36.486 44.621-51.703 69.215-6.645 10.739-15.063 20.404-19.697 33.243z"/><path d="M494.91 358.933c-14.797 12.597-31.175 16.247-49.118 9.447-17.873-6.774-27.879-20.494-29.787-39.195-1.888-18.497 9.83-39.637 32.895-46.94 29.23-9.252 62.627 13.226 60.38 46.951-.774 11.601-5.7 21.435-14.37 29.737zM286.681 487.727c3.792-4.019 7.42-7.679 11.58-10.788 4.902-3.664 10.614-4.408 16.881-4.338-.99-8.342-.385-16.01 2.473-23.444 1.856-4.827 4.761-8.702 8.965-11.704 14.518-10.365 29.917-13.025 46.677-5.839 3.664 1.572 4.38 3.135 2.301 6.677-3.825 6.52-3.669 6.702-10.87 4.207-12.16-4.21-23.361-1.324-31.808 7.303-7.818 7.986-7.972 22.614 6.42 30.693 9.587 5.38 19.18 10.727 28.567 16.457 3.56 2.173 4.793 4.176 1.914 7.808-2.303 2.905-2.938 7.66-8.776 3.974-9.846-6.216-20.178-11.663-30.297-17.448-5.318-3.039-11.195-4.273-17.147-4.954-9.243-1.058-14.205 5.814-18.074 12.033-13.64 21.925-10.338 37.665 7.652 56.017 11.151 11.375 24.73 20.246 37.928 29.275 7.471 5.11 16.272 6.589 25.196 6.96 4.346.182 7.473-2.367 10.467-5.132 9.265-8.555 15.527-19.532 23.534-29.07 19.987-23.805 27.465-52.827 35.387-81.747 1.274-4.651 2.829-9.234 3.908-13.928.842-3.662 2.691-4.667 6.111-3.449 1.721.614 3.523.997 5.264 1.559 1.677.54 2.44 1.662 1.891 3.455-7.588 24.778-11.576 50.9-23.956 73.895-11.12 20.654-25.172 39.543-41.042 57.042-8.966 9.888-19.666 11.58-31.781 9.6-9.837-1.61-18.932-5.06-26.907-11.24-11.057-8.57-22.569-16.6-33.194-25.67-11.158-9.523-18.813-21.843-21.148-36.414-2.454-15.312 2.425-29.176 11.884-41.79z"/></svg>
