<svg width="32px" height="32px" class="oofla" xmlns="http://www.w3.org/2000/svg" viewBox="0 0 1024 1024"><circle cx="512" cy="512" r="512" fill="#fff"/><path d="M603.031 719.18c-22.885 7.119-46.13 8.482-69.449 9.135-13.646.383-27.315 1.009-40.948.622-36.454-1.036-71.469-8.972-105.217-22.817-18.641-7.647-37.43-14.913-55.65-23.567-9.384-4.457-18.023-10.046-26.58-15.838-5.72-3.871-5.716-3.768-9.915 1.46-15.473 19.266-32.167 37.355-51.476 52.881-5.817 4.677-12.21 8.513-18.802 11.724.428 2.605 2.266 3.337 3.678 4.395 9.756 7.304 18.898 15.28 27.232 24.196 8.63 9.233 7.066 21.7-3.315 28.773-10.863 7.403-22.475 5.85-34.177 3.596-13.239-2.549-25.052-8.845-37.038-14.647-1.886-.913-3.885-2.78-5.975-1.146-2.294 1.793-.37 4.117.258 5.962 5.843 17.16 6.905 35.174 9.66 52.884.793 5.1 1.002 10.232 1.211 15.394.312 7.687-3.225 12.792-9.59 16.124-6.154 3.221-12.639 3.196-18.591-.452-8.716-5.342-15.037-12.79-19.399-22.192-18.865-40.66-29.837-83.99-43.236-126.503-1.798-5.702-4.116-11.194-3.954-17.361.256-9.715 6.702-17.25 16.274-18.513 7.85-1.036 15.51-.99 22.9 2.795 4.868 2.494 10.068 4.462 15.29 6.126 27.58 8.787 53.23 5.98 75.537-13.763 14.121-12.5 26.745-26.46 38.47-41.253 2.456-3.098 1.543-4.527-.824-6.92-15.3-15.46-33.587-27.318-49.83-41.598-21.725-19.097-41.364-40.098-55.62-65.615-11.313-20.25-11.581-41.072-4.323-62.687 5.144-15.321 15.175-27.623 23.531-41.012 15.576-24.956 35.532-46.597 52.602-70.414 29.695-41.43 60.352-82.154 91.253-122.684 14.039-18.414 29.31-35.934 46.693-51.326 18.197-16.112 39.661-24.455 64.124-25.345 33.26-1.21 62.463 10.874 90.914 26.283 14.703 7.963 28.957 16.458 41.492 27.556 33.634 29.778 63.781 62.478 84.823 102.659 2.063 3.939 4.608 5.737 9.3 5.853 21.695.535 42.68-3.547 63.489-9.006 28.248-7.41 55.646-17.129 82.074-29.648 8.555-4.053 17.644-6.977 26.48-10.444 8.037-3.153 13.774-7.89 16.963-16.747 6.846-19.017 18.51-25.799 38.548-24.387 3.785.266 7.269 1.661 10.074 4.002 6.29 5.252 13.55 9.111 19.91 14.22 24.98 20.07 40.802 45.553 46.443 77.36 3.971 22.39 6.462 44.811 3.891 67.496-1.595 14.08-3.872 27.781-14.65 38.826-11.291 11.57-23.976 13.234-38.35 8.34-4.27-1.453-8.34-3.168-13.01-2.835-1.565.111-3.388-.42-4.773-1.215-12.72-7.29-26.935-8.69-40.992-9.416-24.988-1.29-49.822 1.845-74.647 4.415-12.749 1.32-25.352 3.577-38.013 5.464-1.935.288-3.933.429-5.964 1.937 4.757 5.867 9.172 11.884 14.173 17.365 12.26 13.434 18.848 29.661 23.767 46.766 7.285 25.334 9.487 51.305 4.297 76.989-6.205 30.708-21.723 56.888-46.34 76.754-14.884 12.011-29.321 24.641-45.219 35.376-.535.361-.955.894-1.562 1.472 14.572 27.295 39.55 44.436 61.002 64.488 2.533-.867 2.704-2.524 3.213-3.862 1.479-3.89 3.154-7.74 4.2-11.751 6.824-26.157 22.138-47.981 36.43-70.18 5.633-8.746 14.8-15.223 24.234-19.602 11.144-5.174 25.63 1.862 23.57 17.231-1.985 14.817-5.344 29.445-7.771 44.21-1.486 9.034-3.965 17.733-7.79 25.875 2.437 1.859 3.775.27 4.989-.546 17.648-11.872 38.351-15.788 58.073-22.167 8.573-2.773 16.01.448 20.02 7.154 3.909 6.537 2.955 14.922-2.562 21.295-11.008 12.717-21.945 25.5-33.177 38.017-4.249 4.735-10.409 7.117-15.49 10.867-29.919 22.082-64.532 35.171-97.858 50.64-8.615 4-18.481 5.464-28.327 4.623-7.376-.63-13.34-7.272-13.568-15.428-.19-6.835 1.758-13.153 5.065-19.067 6.776-12.12 6.825-12.145-3.444-21.422-14.461-13.065-29.21-25.81-43.234-39.36-10.523-10.168-18.438-22.35-26.426-34.417-3.088-4.664-6.013-5.353-10.636-3.015-8.95 4.525-18.523 7.439-28.435 10.569m116.722-130.888c11.46-19.034 14.955-39.674 11.594-61.407-3.391-21.93-10.93-42.106-26.743-58.486-3.51-3.636-7.04-6.985-11.675-9.178-6.472-3.062-12.809-6.411-19.195-9.654-7.229-3.67-10.717-9.43-10.732-17.676-.01-5.744 2.582-10.582 4.03-15.838 4.61-16.731 18.326-23.296 32.71-26.791 17.853-4.338 36.35-6.155 54.638-8.535 15.325-1.995 30.718-3.75 46.138-4.674 17.25-1.035 34.5-3.276 51.852-1.498 1.507.155 3.317.705 5.001-1.372-8.85-19.548-16.121-39.867-19.663-61.353-.515-3.127-2.727-3.515-5.296-2.624-4.088 1.418-8.25 2.698-12.178 4.484-20.473 9.311-41.22 17.815-62.73 24.558-41.459 12.998-83.297 22.1-127.147 16.179-6.247-.844-11.092-3.31-14.358-8.635-3.047-4.97-6.138-9.933-8.825-15.099-17.304-33.27-41.474-61.05-68.825-86.281-11.916-10.993-25.11-19.991-39.497-27.71-17.419-9.344-34.894-17.713-54.418-21.841-15.396-3.255-29.077.31-42.097 7.78-12.349 7.088-21.113 18.245-30.371 28.68-35.445 39.954-64.234 85.029-97.238 126.869-10 12.677-18.063 26.811-28.59 39.101-19.127 22.332-36.033 46.272-50.89 71.576-5.484 9.34-8.941 19.74-2.653 30.745 11.97 20.948 27.879 38.573 45.926 54.266 16.315 14.186 34.162 26.49 49.945 41.42 16.091 15.221 33.188 29.517 52.41 40.688 24.99 14.522 52.013 24.985 79.155 34.377 33.3 11.523 67.846 17.529 103.534 14.573 19.384-1.606 38.906-1.666 57.947-6.288 12.18-2.956 23.45-8.529 35.229-12.505 16.344-5.518 30.706-14.346 45.009-23.408 9.559-6.056 17.464-14.362 26.652-21.029 12.323-8.942 23.551-19.124 31.35-33.414z"/><path d="M406.79 311.077c6.903-22.978 22.138-37.014 45.07-40.799 34.888-5.757 63.627 14.939 68.08 47.995 5.167 38.346-25.756 63.804-55.744 64.357-27.256.502-52.123-17.674-57.906-44-1.998-9.096-2.045-18.135.5-27.553z"/></svg>
